<?xml version="1.0" standalone="no"?>
<!DOCTYPE svg PUBLIC "-//W3C//DTD SVG 20010904//EN"
 "http://www.w3.org/TR/2001/REC-SVG-20010904/DTD/svg10.dtd">
<svg version="1.0" xmlns="http://www.w3.org/2000/svg"
 width="768.000000pt" height="512.000000pt" viewBox="0 0 768.000000 512.000000"
 preserveAspectRatio="xMidYMid meet">
<metadata>
Created by potrace 1.16, written by Peter Selinger 2001-2019
</metadata>
<g transform="translate(0.000000,512.000000) scale(0.100000,-0.100000)"
fill="#000000" stroke="none">
<path d="M4929 4733 c-1 -5 -1 -12 0 -17 1 -5 -5 -6 -14 -3 -8 4 -15 2 -15 -2
0 -5 -7 -12 -16 -15 -8 -3 -13 -2 -10 3 3 5 -1 12 -10 15 -8 3 -12 2 -9 -4 3
-6 1 -10 -4 -10 -6 0 -11 5 -11 10 0 6 -4 10 -10 10 -6 0 -10 -75 -10 -205 l0
-205 -30 0 c-24 0 -28 -3 -23 -17 4 -10 16 -26 28 -35 19 -17 18 -17 -29 -1
-66 22 -237 13 -320 -16 -112 -40 -198 -108 -232 -185 -7 -17 -13 -25 -14 -18
0 19 -24 14 -38 -8 -14 -24 -32 -26 -32 -5 0 8 -6 15 -12 15 -7 0 -26 7 -41
15 -28 14 -28 14 -25 -12 2 -22 11 -30 43 -39 22 -7 34 -13 27 -13 -21 -1 -3
-21 19 -21 13 0 18 4 13 12 -4 6 -3 8 4 4 6 -3 18 4 27 16 16 23 16 23 8 -7
-15 -56 -7 -167 16 -228 28 -70 87 -147 138 -177 21 -13 47 -31 58 -41 11 -10
49 -29 85 -42 48 -18 60 -27 48 -32 -29 -12 -127 26 -187 71 -126 95 -183 207
-183 359 l0 60 -8 -53 c-10 -67 -55 -142 -97 -162 l-33 -15 0 -89 0 -89 44 41
c60 56 104 63 152 27 19 -15 41 -39 47 -54 6 -14 15 -29 20 -32 11 -8 -52 -21
-65 -13 -5 3 -47 -13 -92 -35 -46 -23 -88 -41 -93 -41 -5 0 -10 -24 -11 -54
-1 -54 0 -55 31 -58 l31 -3 0 -172 c-1 -154 1 -173 16 -173 12 0 16 -9 16 -35
0 -22 -5 -35 -13 -35 -7 0 -13 -11 -13 -25 0 -14 -6 -25 -12 -25 -8 0 -9 -3
-3 -8 6 -4 12 -23 13 -42 2 -19 5 -36 6 -38 2 -1 149 -7 327 -12 178 -5 325
-9 327 -10 2 0 2 -21 0 -47 l-3 -48 -100 -6 c-55 -4 -407 -7 -781 -8 -676 -1
-682 -1 -708 20 l-26 21 1 149 c1 117 4 149 14 149 19 0 29 -20 27 -52 -1 -14
2 -29 8 -33 16 -10 12 -25 -7 -25 -16 -1 -16 -2 1 -15 29 -22 36 -18 26 14 -8
28 6 90 23 107 13 13 7 24 -14 24 -11 0 -17 5 -14 10 3 6 2 10 -4 10 -11 0
-28 52 -30 91 0 19 5 28 19 32 12 3 20 14 20 27 0 11 5 18 10 15 14 -9 12 -43
-2 -47 -7 -3 -13 -19 -14 -37 -1 -25 2 -31 15 -28 9 2 15 10 13 18 -3 11 -1
12 9 2 21 -20 42 -16 36 7 -6 24 6 26 26 5 8 -8 17 -12 19 -9 3 2 11 -2 18
-11 19 -22 27 -19 34 16 4 23 2 35 -11 44 -15 11 -15 14 6 36 26 28 24 50 -7
64 -12 5 -22 17 -22 26 0 21 -22 30 -35 15 -12 -13 -13 -31 -2 -42 4 -4 7 1 7
12 1 16 3 15 14 -6 15 -26 11 -80 -6 -80 -5 0 -6 6 -2 13 5 8 2 8 -9 -2 -15
-12 -17 -11 -17 2 0 9 -7 23 -16 31 -8 9 -12 21 -8 27 4 8 3 9 -4 5 -7 -4 -12
-14 -12 -22 0 -8 -10 -14 -25 -14 -17 0 -29 -8 -37 -25 -6 -13 -15 -22 -20
-19 -4 3 -6 9 -3 14 3 4 -2 13 -10 20 -13 11 -15 68 -15 391 0 332 -2 378 -15
373 -20 -8 -19 6 3 23 16 13 15 13 -4 4 -12 -6 -26 -6 -35 -1 -7 5 -22 7 -31
4 -10 -3 -18 -1 -18 5 0 6 4 11 10 11 5 0 2 9 -7 20 -9 11 -19 17 -21 15 -3
-3 1 -11 8 -20 15 -18 -1 -20 -18 -3 -9 9 -12 9 -12 0 0 -14 -32 -4 -43 15 -5
7 -13 11 -18 7 -6 -3 -13 3 -16 15 -5 21 -23 30 -23 11 0 -5 -4 -10 -10 -10
-5 0 -6 7 -3 17 4 11 3 14 -5 9 -7 -4 -12 -1 -12 10 0 13 3 14 13 5 8 -6 16
-9 18 -6 3 2 21 0 42 -4 33 -8 37 -7 37 10 0 10 7 19 15 19 17 0 18 6 5 35 -8
18 -9 18 -9 -5 -1 -20 -3 -22 -11 -10 -6 10 -5 22 5 36 11 17 11 24 2 35 -10
12 -9 12 3 2 7 -7 23 -13 34 -14 21 0 21 0 1 -9 -17 -7 -17 -9 -3 -9 11 -1 15
-6 12 -16 -4 -8 -10 -12 -15 -9 -5 3 -9 0 -9 -5 0 -6 5 -11 11 -11 5 0 8 -4 4
-9 -6 -11 25 -31 47 -31 7 1 2 8 -12 16 -14 8 -17 13 -7 10 10 -3 27 -1 38 5
15 8 24 7 36 -3 14 -11 15 -8 8 32 -8 48 -19 64 -53 74 -12 4 -22 11 -22 16 0
5 -12 7 -27 5 -16 -1 -27 -8 -25 -14 1 -6 -1 -10 -5 -10 -31 5 -52 -2 -47 -16
4 -9 0 -15 -9 -15 -8 0 -18 -6 -20 -12 -3 -8 -6 -6 -6 5 -1 9 4 17 11 17 6 0
4 7 -5 18 -19 21 -22 42 -7 42 6 0 10 5 10 11 0 5 -5 7 -11 3 -7 -4 -10 -1 -7
6 2 8 10 16 18 18 7 3 10 0 6 -6 -3 -6 -1 -14 5 -18 9 -5 7 -11 -6 -21 -11 -7
-13 -13 -6 -13 7 0 9 -5 6 -10 -4 -7 3 -8 22 -4 35 9 35 8 27 28 -3 9 -10 13
-15 10 -15 -9 -10 8 8 30 10 12 11 16 4 9 -11 -10 -17 -9 -26 3 -16 23 -68 -2
-61 -29 2 -10 -4 -27 -15 -38 -10 -10 -19 -14 -19 -8 0 6 -10 8 -22 5 -13 -3
-8 1 10 9 33 15 36 39 4 29 -16 -5 -16 -5 1 9 25 20 21 30 -9 23 -17 -5 -23
-3 -19 4 3 5 15 10 26 10 11 0 18 4 15 9 -3 4 -18 6 -32 3 -15 -3 -25 -1 -22
4 3 5 2 18 -3 29 -6 17 -8 17 -8 3 -1 -10 -6 -18 -12 -18 -5 0 -8 -4 -4 -9 3
-6 -3 -15 -14 -20 -15 -8 -18 -19 -15 -43 2 -18 1 -27 -2 -20 -3 6 -15 12 -27
13 -22 0 -22 0 1 9 31 13 28 20 -9 20 -16 0 -28 -4 -24 -9 3 -5 0 -13 -6 -17
-9 -5 -10 0 -7 14 4 12 2 25 -3 28 -5 3 -9 18 -9 35 0 16 -4 29 -10 29 -5 0
-8 -13 -6 -29 2 -16 0 -35 -5 -42 -4 -7 -7 12 -6 42 0 43 -3 55 -16 57 -10 2
-15 7 -13 11 3 4 -11 5 -29 3 -39 -5 -50 -24 -32 -54 9 -16 9 -22 -1 -25 -6
-3 -9 -10 -5 -16 7 -12 8 -18 11 -75 1 -19 6 -31 12 -27 6 3 10 1 10 -4 0 -6
-4 -11 -10 -11 -6 0 -8 -28 -5 -74 7 -112 3 -115 -174 -132 l-143 -13 -108
-70 c-120 -78 -143 -86 -182 -68 -27 12 -237 285 -277 359 l-21 40 21 26 c11
14 28 27 37 28 9 2 21 9 27 16 5 7 28 25 50 39 25 16 41 35 42 48 2 20 -2 22
-30 16 -36 -8 -54 -21 -43 -32 4 -4 11 -1 16 7 5 8 12 11 16 7 4 -4 -1 -14
-12 -21 -14 -11 -21 -11 -26 -3 -6 9 -8 9 -8 0 0 -7 -7 -10 -15 -7 -8 4 -15
11 -15 16 0 6 7 8 15 4 18 -7 20 5 3 22 -8 8 -9 12 -1 12 6 0 14 -6 16 -12 4
-10 6 -10 6 0 1 6 11 12 24 13 12 0 31 5 42 10 16 8 15 8 -8 4 -20 -4 -27 -2
-22 6 5 8 2 8 -11 1 -11 -5 -29 -8 -41 -7 -13 1 -23 -3 -23 -9 0 -6 -11 -16
-25 -22 -22 -11 -24 -10 -22 9 1 16 -4 22 -20 23 -13 1 -28 -5 -34 -12 -14
-17 -66 -18 -72 -1 -3 7 -6 5 -6 -5 -1 -10 -5 -18 -11 -18 -5 0 -7 7 -4 15 4
8 2 15 -2 16 -48 5 -104 3 -104 -3 0 -4 -4 -8 -10 -8 -5 0 -7 8 -3 18 3 9 3
14 -1 10 -4 -3 -9 -14 -11 -25 -2 -10 -4 -20 -4 -22 -1 -2 -9 3 -20 13 -14 13
-24 14 -46 6 -25 -9 -27 -14 -21 -48 5 -30 4 -34 -5 -18 -9 15 -13 16 -20 5
-6 -10 -9 -7 -9 10 0 13 8 30 18 37 16 13 16 14 -3 8 -16 -4 -15 -2 4 9 23 14
23 14 2 20 -11 3 -21 0 -21 -5 0 -6 -8 -4 -17 3 -16 12 -17 12 -6 -1 21 -28
11 -62 -25 -83 -20 -12 -31 -25 -28 -33 3 -8 1 -14 -5 -14 -6 0 -9 8 -8 18 2
9 -3 28 -10 41 -9 17 -10 26 -2 34 8 8 11 6 12 -9 0 -10 3 -13 6 -6 2 6 8 10
12 8 4 -3 13 -1 20 3 10 7 11 13 2 27 -6 11 -11 13 -11 7 0 -7 -5 -13 -11 -13
-5 0 -7 5 -4 10 4 7 -8 10 -34 8 -22 -2 -43 -9 -46 -16 -3 -10 1 -11 18 -7 17
6 19 4 11 -5 -14 -15 -49 -9 -50 8 -1 6 -2 17 -3 24 -1 7 -9 4 -21 -7 -11 -10
-18 -20 -16 -23 3 -2 -1 -24 -9 -48 -7 -24 -11 -45 -9 -45 2 -1 9 -2 16 -3 6
0 12 -7 14 -14 1 -7 0 -8 -2 -3 -3 6 -11 8 -18 5 -8 -3 -16 2 -20 11 -4 11
-12 14 -27 10 -18 -6 -19 -5 -7 14 12 20 14 20 27 4 12 -16 13 -14 7 15 -3 21
-2 31 4 27 6 -3 10 0 10 9 0 8 -7 13 -17 11 -10 -2 -22 -4 -28 -4 -5 -1 -3 -6
5 -11 10 -6 11 -10 3 -10 -7 0 -13 -6 -13 -14 0 -19 -35 -30 -56 -18 -15 9
-15 11 6 22 20 11 22 10 17 -4 -4 -9 -3 -16 2 -16 5 0 11 9 14 20 3 11 1 18
-4 14 -5 -3 -9 1 -9 8 0 9 -3 9 -10 -2 -8 -12 -11 -11 -17 10 -7 25 -7 25 -13
-5 -4 -25 -10 -30 -33 -30 -15 -1 -27 3 -27 7 0 4 11 8 25 8 14 0 25 5 25 11
0 6 -16 9 -38 8 -21 -2 -43 0 -50 5 -16 9 -16 -6 0 -22 10 -10 10 -15 -2 -22
-10 -6 -17 -5 -20 3 -3 7 -24 13 -52 13 -37 0 -45 -2 -37 -12 6 -7 8 -23 4
-35 -6 -16 -4 -20 6 -13 12 6 12 5 1 -8 -10 -13 -10 -17 0 -20 7 -3 19 1 26 9
7 7 17 13 22 13 5 0 -1 -10 -13 -23 -32 -33 -63 -28 -60 9 1 16 -1 24 -5 19
-4 -6 -13 -10 -19 -9 -7 1 -20 2 -28 3 -8 0 -15 8 -15 16 0 9 -6 12 -17 8 -12
-5 -14 -3 -8 8 8 12 6 12 -8 0 -9 -7 -17 -20 -17 -27 0 -8 -11 -16 -24 -20
-19 -4 -23 -11 -20 -30 2 -13 0 -24 -6 -24 -5 0 -10 -8 -10 -17 0 -14 -2 -15
-9 -4 -6 9 -11 10 -15 2 -11 -18 -28 -2 -17 16 4 9 6 25 4 37 -4 16 -2 17 5 7
8 -11 10 -11 15 0 4 11 6 10 6 -2 1 -8 -4 -20 -11 -27 -13 -13 0 -16 18 -4 8
5 9 14 1 32 -5 14 -9 32 -8 41 1 9 -5 16 -13 16 -8 0 -13 -8 -11 -18 4 -18 -8
-31 -30 -35 -24 -4 -64 -24 -70 -34 -5 -8 -11 -8 -21 1 -8 6 -14 7 -14 2 0 -6
-10 -15 -22 -21 -13 -6 -17 -11 -10 -11 6 -1 12 -7 12 -15 0 -8 -8 -14 -17
-14 -35 3 -70 -12 -81 -34 -6 -13 -11 -17 -11 -10 -1 6 -5 12 -9 12 -5 0 -9
-6 -10 -12 -1 -7 -3 -28 -5 -45 -2 -18 2 -35 7 -38 6 -3 1 -2 -12 1 -13 3 -28
-1 -37 -10 -18 -17 -20 -37 -4 -33 6 1 14 -4 17 -12 2 -8 1 -11 -4 -8 -5 3
-16 0 -25 -6 -19 -14 -38 -64 -20 -53 6 4 11 3 11 -3 0 -6 6 -8 14 -5 11 4 13
0 9 -15 -5 -18 -8 -19 -22 -9 -11 9 -10 6 3 -9 10 -12 16 -29 13 -37 -3 -8 -1
-17 6 -20 7 -2 1 -5 -12 -5 -20 -1 -21 1 -11 14 10 11 9 17 -3 29 -13 14 -17
14 -29 -1 -9 -12 -9 -15 0 -9 22 13 32 -4 16 -29 -9 -13 -13 -29 -9 -35 3 -5
1 -10 -6 -10 -8 0 -8 -4 1 -15 10 -12 8 -16 -11 -24 -24 -9 -24 -10 6 -16 22
-5 31 -13 32 -28 0 -12 -1 -16 -4 -9 -3 6 -9 12 -14 12 -6 0 -8 -4 -5 -8 2 -4
0 -14 -5 -22 -7 -11 -9 -7 -7 15 2 22 -2 31 -16 33 -14 3 -17 0 -12 -13 4 -11
0 -25 -10 -36 -22 -25 -37 -24 -29 1 3 11 2 20 -4 20 -5 0 -12 -12 -15 -27 -7
-37 -1 -213 9 -235 4 -11 3 -18 -4 -18 -19 0 -12 -16 11 -29 20 -10 20 -10 2
-6 -17 4 -20 0 -21 -30 -1 -19 3 -38 8 -41 5 -3 9 -10 9 -15 0 -6 -3 -8 -8 -5
-4 2 -8 -22 -9 -55 -1 -53 9 -78 19 -47 3 9 6 9 12 0 4 -7 3 -12 -3 -12 -6 0
-9 -6 -7 -12 1 -7 1 -10 -1 -5 -9 14 -21 7 -19 -10 2 -10 13 -19 24 -21 12 -2
22 -8 22 -13 0 -6 -4 -7 -10 -4 -5 3 -10 1 -10 -5 0 -6 -4 -9 -9 -6 -6 4 0
-58 8 -81 1 -2 1 -9 1 -15 0 -10 2 -10 9 0 5 8 6 -8 4 -40 -3 -39 -2 -49 6
-38 7 10 11 11 11 3 0 -7 -9 -17 -19 -23 -26 -13 -31 -13 -31 5 0 8 4 15 8 15
5 0 9 7 9 15 0 8 -4 15 -8 15 -13 0 -19 -47 -9 -80 6 -22 6 -38 -1 -46 -9 -11
-9 -168 0 -159 2 3 12 0 21 -5 19 -10 33 -70 16 -70 -6 0 -5 -5 2 -12 7 -7 12
-17 12 -22 0 -6 -5 -3 -11 7 -5 9 -17 17 -25 17 -14 0 -14 2 0 16 22 21 20 49
-3 51 -16 1 -18 -5 -16 -50 2 -29 6 -61 11 -71 5 -14 4 -17 -4 -12 -9 5 -9 1
-2 -18 5 -14 6 -26 1 -26 -15 0 -11 -68 4 -74 18 -7 20 15 2 33 -10 11 -9 12
2 6 7 -4 16 -2 21 5 5 8 9 7 13 -5 4 -9 3 -13 -3 -10 -6 3 -10 -1 -10 -10 0
-9 5 -13 11 -9 6 3 3 -5 -6 -20 -18 -26 -9 -36 13 -14 9 9 12 8 12 -4 0 -8 -7
-21 -15 -28 -11 -9 -12 -17 -4 -32 9 -16 8 -19 -3 -16 -17 6 -23 48 -7 48 12
0 -19 29 -32 30 -3 0 -5 -26 -5 -58 1 -53 3 -58 21 -55 16 3 15 1 -5 -11 -20
-12 -21 -15 -7 -16 10 0 16 -4 13 -9 -4 -5 4 -7 16 -5 13 2 18 2 11 -2 -7 -3
-10 -11 -7 -17 2 -7 6 -27 8 -44 3 -27 0 -33 -15 -33 -11 0 -19 -5 -19 -12 0
-6 -3 -8 -6 -5 -4 4 -1 14 7 24 9 11 10 14 1 9 -6 -4 -12 -2 -12 3 0 6 7 11
15 11 8 0 15 7 15 15 0 26 -28 16 -34 -12 -7 -32 -1 -121 8 -130 3 -3 1 -12
-6 -20 -8 -10 -8 -20 2 -38 11 -20 11 -30 1 -51 -6 -15 -9 -29 -7 -32 3 -3 8
3 12 12 8 20 21 21 21 1 0 -8 -4 -15 -9 -15 -4 0 -7 -3 -7 -7 4 -22 -2 -44
-10 -39 -4 3 -6 -6 -3 -20 3 -17 10 -24 23 -22 10 2 18 0 19 -4 1 -23 -1 -28
-11 -28 -5 0 -7 4 -4 10 3 5 -3 10 -13 10 -14 0 -19 -7 -19 -25 0 -21 2 -23
18 -14 13 6 19 6 19 -1 0 -5 3 -9 8 -7 12 4 14 -7 6 -27 -5 -12 -3 -21 4 -24
7 -2 10 -8 6 -13 -3 -5 -1 -9 5 -9 5 0 3 -14 -5 -30 -17 -33 -29 -38 -38 -14
-8 21 -8 24 5 24 5 0 7 -4 4 -10 -3 -5 -2 -10 4 -10 21 0 16 35 -7 48 -14 6
-26 12 -28 12 -2 0 -2 -27 -1 -60 1 -40 6 -60 15 -60 6 0 12 -4 12 -10 0 -5
-7 -7 -15 -4 -20 8 -19 -13 1 -33 8 -9 14 -27 12 -42 -2 -16 2 -25 10 -24 6 2
12 -4 12 -12 0 -8 15 -19 32 -24 22 -6 26 -10 13 -10 -11 -1 -30 6 -42 14 -37
26 -49 11 -49 -60 0 -46 4 -65 13 -65 7 0 13 -6 13 -12 0 -9 4 -8 10 2 7 11
10 12 10 2 0 -9 7 -11 20 -7 14 5 18 2 15 -7 -3 -8 6 -25 20 -38 29 -27 32
-40 9 -40 -8 0 -12 5 -9 10 3 6 1 10 -4 10 -14 0 -14 -17 0 -26 8 -4 7 -9 -2
-15 -9 -6 -10 -9 -2 -9 8 0 9 -9 3 -30 -7 -23 -5 -30 6 -30 8 0 14 8 14 18 0
11 5 8 15 -12 18 -33 19 -39 5 -31 -5 3 -10 1 -10 -4 0 -6 5 -11 11 -11 6 0 9
-14 8 -33 -2 -18 1 -39 5 -46 7 -10 5 -12 -4 -6 -8 5 -11 3 -8 -6 3 -8 11 -13
17 -11 7 1 10 -2 7 -7 -4 -5 -2 -12 4 -16 6 -4 8 -10 5 -15 -3 -5 -1 -11 4
-14 16 -10 21 25 7 46 -9 12 -12 36 -10 66 3 34 1 43 -6 32 -12 -19 -13 -8 0
24 6 17 6 27 -2 32 -7 5 -8 2 -3 -7 8 -12 6 -12 -8 0 -9 7 -17 19 -17 25 0 7
3 8 8 1 8 -12 22 -13 37 -3 6 4 17 3 25 -3 12 -7 11 -9 -5 -10 -19 0 -19 -1
-1 -8 17 -7 17 -8 3 -14 -16 -6 -19 -30 -11 -76 5 -22 6 -22 23 -7 17 16 19
16 25 1 9 -25 7 -43 -3 -26 -5 8 -16 11 -30 6 -15 -4 -19 -10 -13 -18 14 -18
20 -86 7 -91 -5 -2 -2 -5 7 -5 10 -1 17 -4 17 -8 -3 -20 2 -26 11 -13 8 13 10
12 10 -2 0 -10 6 -17 12 -15 8 1 14 -12 16 -37 3 -29 -1 -41 -17 -52 -27 -19
-17 -48 10 -33 18 9 19 7 13 -18 -8 -35 -14 -42 -14 -18 0 37 -14 3 -15 -36
-1 -31 2 -38 13 -34 12 4 13 3 2 -10 -7 -8 -17 -12 -22 -9 -6 4 -6 -2 1 -14
10 -19 8 -52 -4 -72 -4 -6 -2 -16 3 -23 6 -7 9 -34 7 -60 -3 -32 -1 -46 6 -41
7 4 7 -2 -1 -16 -7 -12 -8 -20 -2 -16 5 3 17 -5 26 -18 12 -18 12 -26 3 -29
-8 -4 -8 -6 2 -6 10 -1 11 -4 2 -15 -9 -11 -8 -15 6 -20 15 -6 15 -8 3 -16
-12 -8 -12 -10 3 -16 9 -3 17 -10 17 -15 0 -4 -7 -6 -15 -3 -10 4 -15 0 -15
-11 0 -12 5 -15 21 -10 15 5 19 4 15 -4 -4 -6 -16 -11 -27 -11 -10 0 -19 -5
-19 -11 0 -5 4 -8 9 -5 12 8 41 -4 41 -16 0 -5 -4 -6 -10 -3 -5 3 -10 -3 -10
-14 0 -11 5 -23 12 -27 7 -5 8 -3 3 6 -5 9 -4 11 3 6 16 -10 15 -26 -1 -26 -8
0 -14 -7 -14 -15 0 -16 9 -19 21 -8 3 4 14 8 24 9 14 2 14 0 -3 -12 -11 -9
-19 -20 -17 -25 1 -5 -5 -9 -13 -9 -19 0 -19 -16 0 -24 8 -3 15 -12 15 -21 0
-13 4 -14 20 -5 12 6 20 7 20 1 0 -5 -6 -12 -12 -14 -7 -3 -4 -6 7 -6 12 -1
26 4 33 11 9 9 12 9 12 0 0 -9 482 -12 2036 -12 2036 0 2036 0 2031 20 -3 11
-1 18 4 14 5 -3 9 -12 9 -20 0 -8 6 -14 13 -14 10 0 12 10 9 32 -4 29 -3 31
11 20 10 -9 17 -10 22 -2 10 16 28 12 21 -6 -3 -8 -2 -12 3 -9 5 3 12 1 15 -4
12 -18 -14 -22 -39 -5 -14 9 -25 12 -25 7 0 -14 47 -36 63 -30 8 3 17 15 20
26 3 13 1 19 -5 15 -6 -4 -5 3 1 15 13 23 33 29 27 9 -17 -54 -15 -64 10 -66
15 -1 23 2 19 8 -4 6 -11 8 -16 5 -5 -4 -9 3 -9 15 0 12 4 19 9 16 14 -9 21
20 8 34 -9 10 -9 11 1 6 6 -4 12 -2 12 4 0 7 -8 9 -20 5 -13 -4 -20 -2 -21 7
0 7 -2 20 -4 29 -1 9 4 16 11 16 10 0 12 -7 8 -20 -4 -11 -2 -17 4 -13 11 7
45 -28 35 -37 -3 -4 1 -7 10 -7 9 0 17 -7 17 -16 0 -8 4 -12 10 -9 15 9 12 -6
-5 -25 -14 -15 -11 -16 26 -16 23 0 37 2 30 4 -18 6 -13 29 9 35 12 3 24 -1
30 -11 5 -10 10 -12 10 -4 0 6 5 12 10 12 7 0 7 -6 1 -18 -9 -16 -6 -19 18
-20 25 0 27 2 23 29 -3 18 0 29 8 29 7 0 10 -7 6 -15 -16 -44 -40 -42 820 -44
647 -1 814 2 808 12 -6 9 -5 9 7 0 22 -18 512 -17 502 0 -5 9 -3 9 8 1 8 -7
55 -12 107 -13 l92 -1 -6 24 c-3 14 -1 27 6 31 9 5 10 1 6 -12 -9 -29 11 -40
76 -42 52 -2 57 0 52 16 -5 17 -5 17 6 1 13 -21 89 -25 109 -6 8 8 11 8 8 2
-5 -8 22 -12 93 -13 l100 -2 0 1586 c0 1261 -3 1585 -12 1585 -10 0 -10 2 -1
8 15 9 16 342 2 342 -5 0 -9 -5 -9 -11 0 -6 -9 -8 -21 -4 -21 7 -21 6 -5 -16
22 -32 22 -62 0 -34 -16 19 -16 19 -9 -5 4 -14 12 -28 18 -31 5 -4 6 -12 2
-19 -5 -8 -12 -7 -26 6 -10 9 -16 20 -14 25 3 4 -2 12 -11 17 -25 14 -11 42
18 34 20 -5 21 -4 10 11 -8 9 -10 22 -6 28 4 7 3 9 -3 6 -12 -8 -30 12 -29 32
1 19 56 22 56 3 0 -7 -6 -10 -12 -7 -7 4 -4 -1 7 -9 21 -18 36 -17 43 2 2 8
-3 10 -14 5 -10 -4 -15 -2 -11 3 3 5 -8 25 -24 43 -30 35 -36 47 -19 36 15 -9
30 4 23 21 -3 9 -12 13 -22 10 -13 -5 -13 -4 2 8 16 12 16 16 2 48 -8 20 -12
38 -9 41 3 3 3 11 -1 17 -6 9 -10 9 -16 -1 -7 -11 -9 -11 -9 -1 0 7 7 15 16
19 8 3 13 12 9 20 -3 10 -1 13 9 10 27 -10 38 18 18 43 -16 19 -22 21 -40 11
-26 -14 -28 -9 -6 14 12 12 19 13 30 4 11 -9 14 -8 14 4 0 8 6 18 13 21 6 4 2
4 -11 2 -19 -4 -22 -1 -17 15 13 46 15 56 19 94 3 21 0 45 -6 52 -7 9 -7 13 1
13 6 0 11 6 11 14 0 11 -7 13 -28 6 -27 -7 -28 -6 -24 16 2 13 9 24 16 24 7 0
6 3 -2 8 -7 5 -15 21 -18 36 -3 16 -1 25 5 22 5 -3 8 5 7 19 -1 23 -2 24 -13
8 -13 -17 -18 -8 -14 25 1 6 -3 12 -9 12 -6 0 -8 5 -5 11 5 6 12 4 22 -8 13
-17 13 -16 3 4 -5 12 -10 26 -9 30 4 26 -3 33 -26 27 -21 -5 -24 -3 -19 10 4
9 15 21 25 27 11 5 19 19 19 30 0 18 -4 20 -30 14 -19 -4 -30 -3 -30 4 0 6 9
11 19 11 10 0 22 7 25 16 9 22 8 23 -14 17 -11 -3 -17 -9 -14 -14 3 -5 -5 -9
-18 -8 -13 0 -17 3 -10 6 23 9 12 25 -13 20 -16 -3 -24 0 -22 7 2 6 10 11 18
11 13 0 15 7 11 35 -3 16 -22 12 -22 -5 0 -8 -4 -15 -10 -15 -14 0 -12 17 3
32 17 16 10 49 -9 41 -8 -3 -14 1 -14 10 0 21 -37 28 -46 8 -6 -12 -9 -7 -14
19 -7 31 -8 32 -9 8 -1 -30 -31 -41 -31 -12 0 8 4 12 10 9 6 -3 7 1 4 9 -3 9
-12 16 -20 16 -7 0 -18 8 -24 18 -10 15 -10 14 -5 -4 4 -14 0 -24 -10 -28 -10
-3 -15 1 -15 12 0 13 -2 14 -9 4 -6 -10 -19 -11 -46 -6 -33 6 -36 8 -22 19 25
18 21 25 -10 16 -43 -11 -73 -3 -67 17 5 14 4 15 -5 2 -8 -12 -13 -12 -23 -2
-6 6 -21 11 -32 11 -17 -1 -18 -2 -3 -6 19 -5 24 -33 5 -33 -6 0 -8 3 -5 7 4
3 -5 12 -20 20 -14 7 -28 11 -31 8 -3 -3 1 -5 9 -5 12 0 11 -2 -1 -11 -13 -9
-12 -10 2 -5 10 3 20 1 22 -3 3 -4 -7 -8 -22 -7 -20 1 -26 5 -24 20 2 11 -1
15 -8 11 -17 -10 -71 -15 -65 -5 3 4 -5 6 -16 3 -14 -4 -25 0 -31 11 -11 20
-32 21 -24 1 7 -19 -1 -19 -20 0 -15 15 -48 10 -38 -6 3 -5 -2 -6 -10 -3 -9 3
-13 11 -9 18 3 6 -3 3 -14 -6 -11 -10 -23 -18 -28 -18 -5 0 -17 8 -28 18 -19
16 -19 16 -13 -5 4 -12 2 -24 -3 -28 -7 -3 -8 0 -5 9 7 19 -12 22 -20 4 -4 -7
-5 -4 -3 8 4 18 0 20 -42 18 -28 -1 -45 -6 -43 -13 1 -6 -5 -11 -13 -11 -9 0
-12 -6 -8 -17 4 -11 3 -14 -6 -9 -7 5 -10 14 -7 22 3 7 1 16 -3 19 -5 3 -11
-2 -15 -10 -3 -8 -10 -15 -16 -15 -8 0 -8 6 0 20 9 17 8 20 -9 20 -13 0 -19
-5 -15 -14 3 -8 0 -17 -5 -21 -17 -10 -3 -25 17 -19 14 5 14 4 3 -4 -17 -12
-44 -4 -38 12 3 7 -1 20 -8 29 -10 14 -17 15 -36 7 -23 -10 -23 -10 -1 -6 12
2 20 1 17 -4 -2 -4 -23 -10 -44 -14 -32 -5 -39 -10 -34 -22 5 -14 2 -13 -15 2
-22 19 -29 30 -13 20 5 -4 20 -2 33 3 17 7 18 10 6 10 -10 1 -18 7 -18 14 0 8
-3 8 -9 -2 -5 -8 -19 -12 -35 -9 -14 3 -23 2 -21 -2 3 -4 -6 -7 -19 -7 -17 0
-23 4 -19 13 3 8 0 14 -6 14 -6 0 -12 -4 -12 -10 -1 -5 -2 -16 -3 -22 -1 -7 3
-16 9 -20 6 -5 6 -8 -2 -8 -7 0 -16 -1 -20 -2 -5 -2 -8 4 -9 12 -3 50 -3 50
-41 47 -21 -1 -44 -8 -52 -16 -12 -11 -16 -11 -26 3 -16 22 -47 20 -77 -4 -14
-10 -27 -18 -29 -16 -2 3 -23 1 -46 -4 -32 -5 -43 -4 -43 5 0 7 -7 16 -16 19
-13 5 -15 2 -11 -15 4 -16 3 -19 -6 -10 -6 6 -21 11 -34 11 -12 0 -27 8 -32
18 -10 16 -10 16 -11 0 0 -12 -8 -18 -22 -17 -22 0 -22 1 -3 8 17 7 15 9 -13
13 -18 2 -35 1 -38 -4 -3 -4 3 -8 12 -8 10 0 15 -3 11 -6 -3 -4 -12 -4 -19 -2
-7 3 -15 5 -18 5 -3 0 -16 5 -29 12 -21 12 -23 11 -18 -3 5 -14 3 -15 -12 -6
-14 7 -21 6 -24 -3 -3 -9 -10 -7 -25 6 -13 12 -22 15 -27 8 -3 -6 1 -11 10
-11 9 0 14 -4 11 -9 -9 -13 -45 -1 -40 13 3 8 -9 12 -38 11 -23 0 -43 -6 -46
-13 -2 -8 3 -10 15 -6 14 5 15 4 3 -4 -8 -6 -18 -8 -23 -5 -4 3 -15 -3 -23
-13 -15 -18 -15 -18 -6 0 7 14 6 24 -3 33 -17 16 -74 11 -86 -8 -7 -12 -9 -12
-9 0 0 8 -3 11 -6 8 -4 -3 -15 -2 -25 4 -12 6 -19 6 -19 0 0 -5 -22 -9 -49 -8
-27 1 -47 6 -44 11 4 5 1 6 -6 2 -8 -5 -9 -12 -2 -19 7 -9 1 -12 -20 -12 -16
0 -29 3 -29 8 0 4 0 10 0 15 0 4 5 0 10 -8 8 -13 10 -12 10 2 0 12 -6 17 -17
14 -32 -6 -53 -18 -47 -27 3 -5 9 -7 13 -5 4 3 8 -2 8 -10 0 -9 -4 -11 -10 -5
-5 5 -15 7 -22 5 -7 -3 -16 -1 -20 5 -3 6 0 9 7 6 9 -4 14 2 14 14 0 15 -4 17
-13 10 -7 -6 -18 -7 -24 -3 -8 4 -9 3 -5 -4 4 -7 3 -12 -3 -12 -5 0 -15 8 -20
18 -10 16 -10 16 -11 -2 0 -20 0 -20 -15 0 -14 18 -15 18 -11 -8 3 -20 1 -25
-10 -21 -8 3 -14 1 -12 -5 3 -9 -2 -12 -18 -12 -3 0 2 10 10 22 9 12 16 26 16
30 0 10 -20 10 -21 1z m1691 -230 c0 -5 -7 -16 -14 -26 -14 -18 -15 -18 -24 0
-11 19 -14 15 -25 -34 -4 -19 -2 -21 13 -13 9 5 31 25 48 45 32 36 82 49 82
21 0 -17 -82 -69 -141 -89 l-44 -15 -3 -136 -3 -136 40 6 c38 6 42 4 58 -25
12 -20 26 -31 41 -31 13 0 34 -11 47 -25 29 -29 34 -65 8 -63 -44 3 -74 -3
-90 -20 -10 -11 -26 -22 -36 -25 -11 -4 -21 -16 -24 -26 -3 -11 -13 -21 -24
-24 -16 -4 -19 -14 -19 -60 0 -31 5 -59 11 -63 22 -14 59 -109 59 -155 0 -44
1 -46 25 -41 33 6 32 -11 0 -26 -35 -16 -50 -15 -65 3 -11 13 -15 13 -21 3
-10 -15 -12 -358 -3 -382 3 -9 14 -16 24 -16 26 0 84 -93 75 -121 -6 -19 -4
-21 16 -15 13 3 85 13 159 21 120 13 373 65 388 79 2 3 0 11 -5 18 -6 7 -14
34 -17 61 -6 42 -4 54 24 101 28 49 46 66 71 66 5 0 9 -25 9 -55 0 -49 -2 -55
-20 -55 -19 0 -20 -6 -18 -65 3 -56 5 -64 21 -59 15 5 17 -3 17 -76 0 -55 -3
-79 -11 -75 -6 4 -33 8 -61 9 -44 1 -51 -1 -59 -22 -7 -18 -14 -22 -32 -16
-39 12 -77 34 -77 45 0 6 -9 8 -20 4 -12 -4 -20 -2 -20 6 0 15 -157 6 -173
-10 -15 -15 29 -15 71 0 26 9 35 8 48 -5 8 -9 22 -16 29 -16 13 0 65 -45 65
-55 0 -3 -25 -5 -55 -5 -48 0 -55 -3 -55 -19 0 -11 -9 -35 -20 -54 -20 -33
-22 -34 -103 -41 -45 -4 -86 -11 -91 -16 -6 -6 10 -7 42 -3 45 5 57 2 92 -21
37 -24 40 -29 36 -67 -2 -22 -8 -45 -15 -52 -6 -6 -11 -18 -11 -26 -1 -13 -2
-13 -11 2 -16 27 -66 48 -137 58 -37 5 -77 16 -89 25 -20 13 -22 18 -12 37 6
12 22 34 36 48 l24 26 -53 7 c-76 9 -88 -8 -88 -125 0 -104 1 -105 86 -90 41
8 84 8 148 0 125 -14 136 -17 136 -35 0 -9 18 -23 40 -32 22 -9 40 -23 40 -30
0 -8 8 -10 24 -6 27 6 44 -12 27 -29 -7 -7 -7 -14 0 -23 8 -10 3 -12 -28 -7
-21 3 -49 11 -63 18 -14 7 -43 18 -65 23 -197 52 -188 51 -179 17 6 -24 5 -25
-52 -27 -33 -1 -69 -2 -81 -2 -18 0 -23 -6 -23 -28 0 -27 2 -28 53 -28 63 0
73 -7 50 -32 -24 -27 -9 -33 73 -31 41 2 101 -4 134 -11 33 -8 68 -12 79 -9
10 3 79 -16 152 -42 95 -33 144 -45 167 -41 l32 5 0 -164 0 -165 -55 5 c-51 4
-70 -5 -45 -20 20 -12 10 -27 -14 -21 -13 3 -26 2 -28 -2 -2 -4 -71 -6 -154
-4 -148 4 -152 5 -164 28 -16 28 -80 53 -135 50 -36 -1 -40 -4 -43 -28 -2 -16
-7 -28 -11 -28 -4 0 -27 17 -52 37 -24 21 -36 28 -26 17 9 -11 14 -24 10 -29
-5 -4 -3 -5 3 -2 6 3 11 0 11 -8 0 -10 -5 -11 -19 -4 -10 5 -18 8 -18 7 -8
-43 -11 -227 -5 -312 6 -105 8 -113 26 -109 13 4 19 0 19 -10 0 -13 12 -12 75
10 61 20 81 23 103 15 15 -6 48 -13 75 -17 26 -3 47 -9 47 -13 -1 -4 -25 -25
-55 -46 -30 -22 -55 -43 -55 -48 0 -4 -394 -8 -875 -8 -862 0 -875 0 -895 20
-20 20 -20 33 -20 1545 0 1512 0 1525 20 1545 20 20 33 20 830 20 446 0 810
-3 810 -7z m220 -53 c10 -7 22 -138 14 -151 -4 -6 -13 -4 -24 6 -17 15 -19 15
-33 -5 -14 -20 -15 -19 -27 29 -7 28 -16 54 -21 57 -5 3 -9 16 -9 29 0 26 25
45 60 45 17 0 19 5 15 28 -5 26 -5 26 6 -3 7 -16 15 -32 19 -35z m353 -203
c-37 -36 -90 -82 -118 -104 -74 -59 -80 -67 -51 -83 22 -11 27 -9 59 26 112
124 177 187 177 174 0 -22 -289 -304 -325 -318 -16 -6 -51 -13 -77 -17 -27 -3
-48 -11 -48 -16 0 -6 -4 -8 -9 -5 -5 4 -36 -1 -68 -10 -113 -31 -122 -30 -85
16 21 26 87 37 131 22 23 -8 31 -8 31 1 0 7 18 36 40 65 26 34 35 52 25 52 -9
0 -12 6 -9 15 4 8 3 15 0 15 -15 0 -66 -31 -74 -45 -7 -13 -14 -14 -35 -6 -15
6 -27 15 -27 20 0 19 61 70 104 86 39 15 47 15 72 2 16 -8 38 -24 48 -36 11
-12 22 -21 26 -21 4 0 68 56 141 125 74 68 135 120 137 115 2 -5 -27 -38 -65
-73z m-2634 -26 c15 -10 8 -63 -15 -98 -24 -38 -15 -34 32 17 36 39 50 48 60
39 7 -6 12 -21 11 -32 -2 -18 3 -21 22 -19 14 1 32 9 41 17 9 8 29 15 44 15
19 0 29 6 33 20 7 27 23 25 24 -2 2 -40 -3 -63 -15 -70 -8 -6 -8 -8 2 -8 6 0
12 -5 12 -10 0 -18 -53 -61 -67 -56 -7 3 -13 -1 -13 -9 0 -8 -7 -15 -15 -15
-9 0 -12 6 -9 15 4 10 0 15 -12 15 -15 0 -14 3 6 14 16 8 29 9 37 4 7 -6 17
-7 23 -3 19 12 0 25 -36 25 -19 0 -34 4 -34 8 0 4 -14 13 -31 19 -25 10 -31 9
-36 -3 -3 -8 -12 -14 -20 -14 -11 0 -14 -7 -11 -25 4 -18 1 -25 -11 -26 -9 -1
-23 -3 -31 -3 -39 -4 -86 -20 -96 -34 -8 -11 -13 -12 -18 -4 -4 7 7 21 30 34
21 12 32 24 26 26 -9 3 -9 9 -1 24 6 11 8 22 5 25 -7 7 -36 -16 -36 -27 0 -5
-17 -27 -37 -50 -21 -23 -38 -45 -38 -48 -1 -16 -38 -62 -55 -67 -10 -3 -25
-19 -32 -35 -10 -25 -14 -27 -19 -12 -3 10 0 22 9 28 9 6 21 31 27 55 7 24 20
62 30 84 19 46 6 37 -22 -15 -10 -19 -24 -36 -30 -37 -18 -4 23 79 49 100 13
10 37 30 53 44 17 13 46 33 65 43 19 10 44 27 54 39 21 23 25 24 45 12z m2309
-410 c2 -14 -6 -33 -20 -50 -13 -14 -35 -49 -47 -78 l-24 -51 22 -35 21 -35
-34 -30 c-41 -36 -74 -48 -89 -33 -17 17 9 64 31 57 11 -4 22 2 30 14 16 26 8
40 -19 33 -12 -4 -25 0 -29 8 -12 18 -3 29 25 29 16 0 29 11 44 36 30 50 26
53 -14 14 -34 -33 -35 -33 -55 -15 -60 54 29 169 125 162 23 -2 31 -7 33 -26z
m-3876 -212 l31 -30 -6 -147 c-4 -81 -7 -686 -7 -1345 l0 -1198 -25 -25 -25
-25 -585 1 c-355 1 -583 5 -580 11 4 5 13 9 21 9 8 0 14 9 14 20 0 19 -3 18
-38 -10 l-39 -31 -344 2 c-378 1 -379 1 -379 61 0 18 -4 27 -11 23 -5 -4 -9
-17 -8 -28 3 -39 -1 -47 -21 -47 -24 0 -43 39 -28 57 7 9 2 14 -16 19 -28 7
-34 31 -15 66 8 15 8 19 0 14 -7 -5 -11 11 -11 48 0 54 1 56 28 57 l27 1 -27
11 c-23 9 -28 17 -28 44 0 35 13 43 28 18 4 -9 33 -22 64 -29 47 -11 60 -11
83 1 27 15 106 14 152 -2 31 -10 29 2 -12 58 -34 45 -37 47 -84 47 -26 0 -74
9 -107 21 -32 11 -74 23 -91 26 l-33 5 0 99 c0 81 3 99 15 99 8 0 15 5 15 11
0 8 4 8 12 2 7 -6 47 -11 88 -12 136 -3 277 -31 294 -59 7 -12 11 -11 22 9 7
13 13 18 14 11 0 -7 -5 -22 -10 -33 -9 -16 -7 -19 9 -19 11 0 42 8 68 19 26
10 65 21 86 25 21 4 46 15 55 25 47 49 72 82 72 97 0 23 -20 55 -31 49 -13 -9
-11 7 5 46 18 43 28 166 20 229 -6 47 -8 49 -48 58 -44 11 -114 5 -133 -10 -8
-7 -9 -17 -3 -34 6 -14 10 -60 11 -103 1 -86 -13 -127 -55 -155 -30 -19 -49
-20 -75 -4 -15 9 -25 6 -57 -18 -22 -16 -41 -31 -44 -35 -3 -3 -16 -13 -30
-22 l-24 -17 32 0 c22 0 31 -4 26 -11 -9 -15 -71 -6 -118 16 -30 14 -38 26
-51 68 -19 64 -19 147 -1 192 10 23 33 46 70 70 64 41 78 43 100 12 15 -22 16
-22 31 -2 26 33 13 40 -86 42 -85 2 -197 21 -257 44 -17 7 -22 16 -22 45 0 30
3 35 17 29 149 -57 254 -66 373 -31 81 24 86 29 72 61 -10 21 -9 27 3 32 17 6
50 62 41 70 -3 3 -23 -2 -46 -11 -46 -18 -60 -20 -60 -7 0 5 19 14 43 20 59
15 107 47 107 71 0 11 -6 20 -12 20 -23 -1 -103 -47 -100 -59 1 -6 -5 -11 -13
-11 -22 0 -18 27 5 40 12 6 20 21 20 37 0 23 3 25 30 20 25 -6 30 -3 30 14 0
23 27 36 43 20 6 -6 15 -11 21 -11 6 0 5 5 -2 12 -9 9 -5 15 19 25 44 18 66
16 82 -7 13 -18 15 -19 21 -5 3 9 5 35 5 58 -1 23 -3 34 -6 25 -5 -21 -23 -24
-23 -4 0 19 -46 73 -74 87 -17 10 -19 9 -8 -2 29 -31 8 -28 -32 5 -24 20 -52
36 -62 36 -10 0 -25 7 -35 16 -15 13 -23 14 -51 4 -30 -11 -44 -9 -119 15
l-86 27 -41 -21 c-44 -23 -67 -27 -57 -11 4 7 -3 7 -20 0 -15 -6 -40 -10 -56
-10 l-29 0 0 489 c0 479 0 489 21 515 l20 26 932 3 c513 1 963 3 1000 5 65 2
70 0 99 -29z m4268 -182 c0 -29 -4 -33 -41 -45 -23 -7 -42 -12 -43 -10 -15 36
-26 43 -62 41 -223 -13 -285 -5 -254 32 10 13 44 15 206 15 l194 0 0 -33z
m-98 -589 c47 -23 70 -57 64 -93 -7 -40 -22 -51 -35 -27 -6 11 -27 30 -48 42
-32 19 -47 21 -99 16 -57 -6 -61 -5 -71 17 -11 24 -2 54 21 69 18 12 129 -4
168 -24z m-2509 -295 l107 -6 0 -476 c1 -504 5 -555 48 -636 20 -37 22 -54 22
-221 l0 -181 -52 13 c-29 8 -87 14 -130 14 l-78 0 0 610 0 610 -86 0 c-54 0
-83 -4 -79 -10 3 -5 37 -10 76 -10 l69 0 0 -830 0 -830 -570 0 -570 0 2 833 3
832 115 6 115 5 -122 2 -123 2 0 -374 0 -374 -77 5 c-51 3 -97 -1 -130 -10
l-53 -14 0 497 c0 488 0 498 21 524 l20 26 683 0 c376 0 731 -3 789 -7z m2607
-718 c0 -56 -3 -66 -22 -77 -25 -13 -135 -17 -184 -6 -29 6 -32 5 -38 -22 -5
-25 -13 -31 -62 -46 -64 -18 -174 -15 -199 6 -33 27 -11 64 51 89 41 16 143
21 171 8 19 -8 26 -6 43 16 22 27 68 39 151 39 27 0 47 3 46 7 -2 5 32 47 41
50 1 1 2 -28 2 -64z m-3892 -411 l32 -6 0 -129 c0 -106 -3 -129 -14 -129 -25
0 -26 -16 -6 -58 23 -46 27 -152 9 -199 -6 -15 -12 -47 -14 -70 -3 -35 0 -43
13 -43 9 0 -6 -13 -34 -30 -104 -59 -151 -143 -182 -322 -9 -54 -20 -98 -24
-98 -5 0 -8 76 -8 169 0 139 3 171 15 181 13 11 20 9 40 -10 18 -17 28 -21 36
-13 12 12 -13 76 -61 155 l-30 48 0 287 0 286 98 -6 c53 -3 112 -9 130 -13z
m2417 -274 c143 -64 225 -195 225 -357 0 -154 -80 -266 -237 -330 -64 -26
-183 -31 -243 -10 -157 55 -268 226 -254 390 13 144 78 233 222 306 92 47 187
47 287 1z m-957 -292 c-2 -42 -7 -72 -13 -70 -5 1 -11 7 -11 12 -3 23 -5 24
-13 12 -7 -11 -23 -7 -82 21 -41 19 -92 43 -113 51 -69 29 -28 41 147 44 l88
2 -3 -72z m-157 -221 c-16 -17 -17 -22 -6 -44 7 -14 11 -39 9 -57 -6 -33 26
-151 41 -151 4 0 17 16 28 35 10 19 30 47 45 62 37 40 50 23 51 -69 1 -66 -2
-80 -21 -100 l-21 -23 -416 0 -416 0 -19 48 c-12 27 -42 69 -73 99 l-53 52 12
51 11 50 92 0 91 0 44 -77 c25 -43 57 -103 71 -133 l27 -55 20 34 c28 46 35
95 22 160 -5 29 -10 58 -10 62 0 5 81 9 180 9 l180 0 0 58 c0 32 3 62 7 65 3
4 32 -8 64 -25 58 -32 58 -33 40 -51z m-881 -56 c0 -6 -4 -13 -10 -16 -5 -3
-10 -15 -10 -26 0 -10 -5 -19 -11 -19 -8 0 -8 -4 0 -13 8 -10 6 -40 -7 -113
l-18 -99 -157 -3 c-86 -1 -157 0 -157 4 0 9 51 99 117 207 l54 87 100 0 c55 0
99 -4 99 -9z"/>
<path d="M6862 2244 c-15 -27 -156 -56 -257 -52 l-90 3 -3 -43 c-2 -31 1 -44
12 -48 14 -5 210 24 301 46 22 5 75 17 118 26 42 10 77 21 77 25 0 7 -126 59
-142 59 -4 0 -11 -7 -16 -16z"/>
<path d="M1733 2328 c5 -13 1 -18 -13 -18 -17 0 -20 -7 -20 -40 0 -32 6 -45
30 -67 17 -14 30 -33 29 -42 0 -14 -1 -14 -6 -1 -12 33 -53 55 -94 52 -33 -3
-39 -8 -39 -27 0 -12 9 -30 20 -40 12 -10 18 -25 15 -32 -5 -16 35 -102 60
-127 15 -14 19 -15 38 -1 12 8 27 15 34 15 21 0 15 -27 -9 -44 -26 -18 -22
-24 20 -32 l32 -6 0 44 c0 46 -14 68 -53 81 -14 5 -17 2 -15 -11 3 -20 -9 -42
-23 -42 -16 0 -4 49 16 64 13 9 28 11 47 5 29 -8 40 4 12 15 -11 4 -14 13 -10
30 5 20 2 25 -16 28 -22 3 -21 5 15 44 24 27 35 47 31 58 -6 17 -40 30 -64 24
-9 -2 -14 8 -16 30 -1 19 -7 39 -14 45 -10 9 -12 8 -7 -5z"/>
<path d="M1420 1912 c0 -35 -26 -55 -40 -31 -14 21 -33 -37 -20 -61 6 -10 7
-45 4 -79 -7 -60 -7 -61 19 -61 16 0 34 10 47 28 20 25 22 35 16 115 -5 89
-25 156 -26 89z"/>
<path d="M3183 1219 c-13 -5 -23 -13 -23 -18 0 -21 59 -115 77 -122 10 -4 14
-8 10 -8 -4 -1 -3 -10 3 -22 8 -14 20 -19 38 -18 59 4 72 0 69 -23 -7 -44
-152 -113 -183 -87 -11 9 -14 7 -14 -10 0 -26 27 -81 39 -81 4 0 21 -12 37
-26 18 -18 29 -23 32 -15 2 7 -1 18 -7 24 -17 17 -13 34 9 40 14 4 25 -2 36
-19 14 -21 53 -37 40 -16 -3 5 5 30 18 58 20 43 22 58 16 119 -13 137 -117
254 -197 224z"/>
<path d="M5521 1055 c-24 -7 -56 -26 -72 -41 -24 -23 -29 -36 -29 -75 0 -39
13 -74 78 -201 77 -152 95 -174 126 -149 10 8 7 23 -16 71 -34 69 -34 103 0
108 21 3 32 22 12 22 -5 0 -10 11 -10 25 0 13 -7 28 -16 33 -24 13 -9 52 18
49 11 -1 23 4 25 11 6 15 -31 16 -58 1 -11 -5 -29 -7 -40 -4 -19 6 -20 12 -14
63 9 71 12 77 38 90 31 15 10 13 -42 -3z"/>
<path d="M4032 4268 c3 -42 4 -43 43 -48 25 -3 35 -8 28 -13 -15 -10 -17 -83
-3 -92 29 -18 86 57 77 101 -2 13 0 24 6 24 14 0 77 49 77 61 0 5 -49 9 -116
9 l-115 0 3 -42z"/>
<path d="M3410 3258 c-1 -7 -3 -37 -5 -66 -3 -45 0 -56 21 -79 24 -25 26 -49
2 -25 -20 20 -29 14 -22 -14 5 -19 4 -25 -5 -20 -6 4 -11 1 -11 -7 0 -8 -7
-20 -15 -27 -24 -20 -17 -29 16 -20 36 11 89 -11 89 -35 0 -8 5 -15 12 -15 9
0 9 -3 0 -12 -7 -7 -12 -20 -12 -30 0 -10 -6 -18 -14 -18 -18 0 -58 -49 -50
-62 3 -5 -4 -17 -16 -25 -28 -19 -16 -31 35 -33 62 -4 83 8 125 72 46 71 64
140 57 218 -13 143 -119 262 -170 190 -15 -21 -29 -17 -20 6 3 8 0 14 -6 14
-6 0 -11 -6 -11 -12z"/>
</g>
</svg>
