<svg version="1.1" id="Layer_1" xmlns="http://www.w3.org/2000/svg" xmlns:xlink="http://www.w3.org/1999/xlink" x="0px" y="0px"
	 width="100%" viewBox="0 0 496 496" enable-background="new 0 0 496 496" xml:space="preserve">
<path fill="#000000" opacity="1.000000" stroke="none" 
	d="
M268.306274,223.038177 
	C269.689026,239.822556 269.370392,256.091034 267.378540,272.341156 
	C266.365570,280.605255 264.688843,288.716339 262.334747,296.993530 
	C263.959106,298.426392 267.492676,296.842896 267.985046,299.862244 
	C268.452728,302.730438 266.508606,304.942108 264.848022,306.943024 
	C254.071838,319.927887 239.783508,322.356812 224.155121,319.811523 
	C212.847855,317.969910 203.710510,311.997345 196.416779,303.292206 
	C194.192947,300.638031 192.040894,299.670471 188.369202,299.856934 
	C170.179916,300.780701 155.431625,294.192657 147.148376,277.411682 
	C134.021332,250.817719 133.357025,223.755844 147.808075,197.436523 
	C161.408737,172.665970 193.698288,165.346848 215.369217,181.469910 
	C222.081665,186.463928 226.766068,193.149841 229.935333,200.812180 
	C238.821259,222.295670 239.540939,244.195160 232.143967,266.161835 
	C227.572983,279.736145 218.987030,290.330658 205.364670,297.079834 
	C213.755829,307.619537 223.791931,313.309692 236.939240,312.947418 
	C246.310730,312.689148 253.687134,309.218292 258.092804,299.610748 
	C250.536636,300.341095 252.339996,296.180298 253.341919,291.892792 
	C257.304749,274.934875 258.078217,257.663300 257.982605,240.322144 
	C257.907318,226.658936 257.132782,213.054550 254.785858,199.572021 
	C254.087021,195.557236 255.151657,192.619980 259.591553,191.855011 
	C262.744324,191.311798 264.874084,191.775757 265.506561,195.795776 
	C266.904480,204.681564 267.448578,213.632416 268.306274,223.038177 
M195.702118,243.884491 
	C200.804749,241.548096 206.026154,240.242661 211.671524,241.700348 
	C217.225998,243.134583 221.524231,246.233673 224.838913,252.419189 
	C226.780029,233.569092 226.004822,216.419037 217.578751,200.519806 
	C209.883438,185.999435 197.330154,179.872375 181.107986,181.333176 
	C167.695175,182.540970 160.454620,191.561401 154.995285,202.633240 
	C154.408112,203.824051 153.935120,205.079956 153.506210,206.338715 
	C147.544586,223.834747 146.976089,241.548630 151.892487,259.328644 
	C155.151581,271.115082 160.334854,281.867279 171.234085,288.638733 
	C176.361160,291.824066 181.899460,293.737762 188.416672,292.114471 
	C186.887054,286.825012 185.235489,281.964233 184.088852,276.987122 
	C180.833420,262.856598 184.837418,251.160583 195.702118,243.884491 
M198.208344,285.150787 
	C199.045197,286.546875 199.329803,288.315369 201.319412,289.436310 
	C207.504181,286.670135 212.327286,281.998352 216.395050,276.461884 
	C219.209625,272.631134 221.054977,268.427917 220.821167,263.506897 
	C220.477509,256.273590 213.311707,249.144638 206.160812,249.000107 
	C199.708557,248.869720 194.932053,254.279144 194.368744,262.506073 
	C193.849640,270.087646 195.193695,277.394928 198.208344,285.150787 
z"/>
<path fill="#000000" opacity="1.000000" stroke="none" 
	d="
M299.986481,85.805511 
	C348.324310,100.905289 383.607147,131.039169 406.667236,175.467361 
	C414.847412,191.227554 420.101990,208.076202 422.521698,225.732605 
	C423.110931,230.032272 423.029785,230.104507 418.672791,232.554733 
	C409.416107,172.471619 378.115082,127.978027 323.827271,100.809792 
	C289.228088,83.494698 252.233841,79.817207 214.276672,86.563751 
	C138.528290,100.027351 85.591499,157.825058 75.480392,231.797073 
	C69.210266,277.668762 78.031685,320.311249 105.399086,358.301544 
	C132.525696,395.957581 169.220291,418.807343 215.160065,427.319305 
	C213.291214,431.759308 210.287964,431.599274 207.067581,430.914062 
	C170.560181,423.146301 139.803360,405.436707 114.553879,377.919678 
	C88.056610,349.042786 72.952316,315.207306 69.516678,276.193481 
	C65.203468,227.214310 76.397850,182.430328 107.390274,143.737854 
	C136.027084,107.986237 173.608276,87.303032 218.974838,80.608521 
	C246.251999,76.583366 273.072876,78.416306 299.986481,85.805511 
z"/>
<path fill="#000000" opacity="1.000000" stroke="none" 
	d="
M261.670593,183.762909 
	C256.225189,185.541061 251.177704,187.227264 246.094299,188.797241 
	C244.045883,189.429886 241.906662,189.313110 241.015045,187.018402 
	C240.199844,184.920410 241.599091,183.401047 243.428513,182.715820 
	C264.990082,174.639786 286.844788,168.462158 310.091095,174.607208 
	C329.788116,179.813995 338.699432,194.891296 338.052124,213.222351 
	C337.379639,232.266708 324.206482,246.290131 305.454895,249.405151 
	C300.198517,250.278351 294.937042,250.245544 289.629303,250.224136 
	C289.230835,253.139359 290.723083,255.112411 291.651215,257.144714 
	C299.776215,274.935577 310.308136,290.995361 326.092773,302.998413 
	C339.923187,313.515411 354.815735,316.427185 370.942596,308.332703 
	C371.832855,307.885834 372.761414,307.495880 373.705780,307.179993 
	C375.916718,306.440491 378.268250,306.313538 379.438934,308.620392 
	C380.819305,311.340332 378.397461,312.394897 376.527069,313.463043 
	C357.035645,324.594147 334.174377,322.433441 316.520966,307.475098 
	C297.618988,291.458801 286.537415,270.382172 278.580750,247.417175 
	C277.130859,243.232407 280.708557,240.195099 286.178619,240.945236 
	C290.614075,241.553482 294.938385,242.765182 299.494598,242.724594 
	C314.783752,242.588470 325.575226,232.496429 326.659454,217.129120 
	C328.202148,195.263977 317.824554,183.069183 296.029755,180.116104 
	C284.297089,178.526367 273.218445,180.931808 261.670593,183.762909 
z"/>
<path fill="#000000" opacity="1.000000" stroke="none" 
	d="
M327.548645,394.505249 
	C329.519257,398.217407 331.308655,401.600800 333.100983,404.982635 
	C333.944458,406.574127 334.479004,408.093109 332.342773,409.155426 
	C330.458069,410.092651 329.567688,408.864807 328.790955,407.512756 
	C327.633179,405.497406 326.543732,403.442719 324.844543,400.346863 
	C324.669006,402.842194 324.572601,404.320953 324.459595,405.798431 
	C324.092896,410.593109 323.233643,410.994873 319.008057,408.509460 
	C318.063141,407.953674 317.353943,406.820221 315.391083,407.157623 
	C316.447662,409.321411 317.404510,411.349915 318.424774,413.345978 
	C319.093811,414.654755 319.424774,415.894714 317.900757,416.796112 
	C316.330811,417.724640 315.021912,417.371429 314.164459,415.729340 
	C311.400574,410.436310 308.655212,405.133636 305.794922,399.627106 
	C311.965118,394.108826 314.758209,402.403168 319.375488,402.503387 
	C320.440033,400.445374 319.827087,398.256165 319.969269,396.157013 
	C320.139832,393.639008 319.950195,390.811707 323.139832,390.135559 
	C326.152252,389.496979 326.128815,392.628265 327.548645,394.505249 
z"/>
<path fill="#000000" opacity="1.000000" stroke="none" 
	d="
M368.660339,351.408844 
	C373.124176,355.152893 377.280975,358.742828 381.410553,362.363861 
	C382.269623,363.117126 383.329895,363.888092 382.823730,365.276672 
	C382.300964,366.710938 381.076416,367.242981 379.657745,367.255524 
	C375.683777,367.290741 371.709229,367.267792 367.793274,367.267792 
	C367.240845,371.553558 377.186523,371.812134 371.377319,378.417480 
	C366.612396,374.254425 362.115295,370.345764 357.647156,366.404236 
	C356.758148,365.620026 355.955353,364.680878 356.600006,363.369202 
	C357.279663,361.986389 358.577209,361.701202 359.973267,361.699585 
	C363.773865,361.695129 367.574463,361.698029 371.923279,361.698029 
	C370.774994,359.036224 368.581421,358.004822 367.028168,356.438751 
	C364.520508,353.910400 364.843933,352.212036 368.660339,351.408844 
z"/>
<path fill="#000000" opacity="1.000000" stroke="none" 
	d="
M330.964294,283.532227 
	C335.844574,281.844757 339.817871,282.907928 342.217346,286.907257 
	C344.270996,290.330200 344.242432,294.359558 341.663879,297.696228 
	C338.990234,301.156006 335.170502,301.552094 331.271057,300.233002 
	C328.028137,299.136017 326.119843,296.650452 325.719421,293.208130 
	C325.228699,288.989532 326.725159,285.717896 330.964294,283.532227 
z"/>
<path fill="#000000" opacity="1.000000" stroke="none" 
	d="
M342.742432,382.065674 
	C344.182922,386.405518 345.943909,383.221710 347.536652,382.466156 
	C349.075836,381.736023 350.575439,379.656433 352.179840,381.978790 
	C353.549866,383.961792 351.437103,384.808533 350.327240,385.922211 
	C349.163116,387.090393 346.482361,387.845795 348.227844,390.090698 
	C350.222534,392.656250 351.595062,389.759064 353.145782,388.969238 
	C353.870880,388.599945 354.452515,387.955780 355.118866,387.462891 
	C356.430389,386.492859 357.789154,385.897186 358.969666,387.587769 
	C359.980255,389.034943 359.120361,390.086304 358.007416,390.964600 
	C355.029144,393.314911 352.029694,395.638428 348.634644,398.287872 
	C343.888672,393.693695 340.441803,388.460358 336.613434,383.560150 
	C335.638672,382.312469 335.780884,381.080017 337.044250,380.084473 
	C339.648315,378.032532 342.254578,375.982086 344.904053,373.989746 
	C345.970184,373.188019 347.093964,373.246033 347.973267,374.349976 
	C348.870026,375.475891 348.549042,376.503174 347.571136,377.406647 
	C345.990509,378.866943 344.402802,380.319611 342.742432,382.065674 
z"/>
<path fill="#000000" opacity="1.000000" stroke="none" 
	d="
M382.115082,338.765320 
	C384.316742,340.025726 386.117310,341.271790 388.083832,342.143250 
	C390.368561,343.155670 392.813660,343.250122 394.239136,340.752502 
	C395.607422,338.355042 394.740753,336.180573 392.534119,334.694214 
	C390.192200,333.116730 387.715851,331.740112 385.320435,330.240295 
	C383.915070,329.360321 382.225433,328.559906 383.413910,326.389557 
	C384.564667,324.288025 386.104919,324.945740 387.630951,325.861755 
	C390.481567,327.572784 393.518097,329.054413 396.110657,331.096802 
	C400.397430,334.473846 401.072418,339.065308 398.393524,343.482697 
	C395.918945,347.563171 391.508240,348.983826 386.702698,346.939819 
	C384.114319,345.838837 381.673309,344.350922 379.270996,342.867249 
	C377.704407,341.899689 375.017303,341.227509 376.375610,338.548584 
	C377.977631,335.388947 379.972595,337.796906 382.115082,338.765320 
z"/>
</svg>